<svg width="551" height="522" viewBox="0 0 551 522" fill="none" xmlns="http://www.w3.org/2000/svg">
<g clip-path="url(#clip0_178_278)">
<path d="M131.02 56.9634L137.753 87.6869L123.431 130.451L100.357 84.5044L103.559 57.8488L131.02 56.9634Z" fill="#FDB4B4"/>
<path d="M139.005 86.0955H99.1636V134.23H139.005V86.0955Z" fill="#00C9AA"/>
<path d="M122.621 72.4392C137.648 72.4392 149.83 60.2584 149.83 45.2327C149.83 30.2069 137.648 18.0261 122.621 18.0261C107.594 18.0261 95.4126 30.2069 95.4126 45.2327C95.4126 60.2584 107.594 72.4392 122.621 72.4392Z" fill="#FDB4B4"/>
<path d="M98.9373 65.4635C98.9373 65.4635 78.656 28.01 96.942 9.98647C115.228 -8.03709 129.907 3.83931 129.907 3.83931L138.289 3.50057C138.289 3.50057 140.038 10.0968 142.857 6.526C145.675 2.95516 150.769 15.9597 150.769 15.9597C160.224 32.9857 127.449 36.7998 127.449 36.7998C127.449 36.7998 129.815 44.3384 127.41 45.9171C125.004 47.4959 118.577 53.4349 118.577 53.4349L112.824 57.7795L109.405 52.5709C109.405 52.5709 105.834 49.7521 104.03 50.9362C102.225 52.1203 104.707 67.6996 104.707 67.6996L98.9373 65.4635Z" fill="#2E2E41"/>
<path d="M66.2966 341.002L55.894 496.162L81.4669 497.029L115.275 342.303L66.2966 341.002Z" fill="#2E2E41"/>
<path d="M128.278 340.136L117.876 495.296L143.449 496.162L177.257 341.436L128.278 340.136Z" fill="#2E2E41"/>
<path d="M60.0325 376.452L73.6462 207.461L52.769 119.464C50.9692 106.383 59.2117 94.0055 71.9332 90.6305L92.3618 85.2111L101.404 76.1694L121.97 121.583L134.815 76.2041L144.832 83.489L174.542 96.5957L174.529 96.9026L169.763 203.203L180.401 374.947L179.929 374.953L60.0325 376.452Z" fill="#E8E9EA"/>
<path d="M141.807 494.399L149.211 516.503C149.211 516.503 178.18 520.441 178.631 529.409C179.082 538.376 139.261 533.185 115.943 534.357C92.6257 535.529 112.036 510.28 112.036 510.28L114.521 495.771L141.807 494.399Z" fill="#2E2E41"/>
<path d="M81.3361 492.808L88.7407 514.911C88.7407 514.911 117.71 518.85 118.16 527.817C118.611 536.785 78.7901 531.594 55.4726 532.766C32.155 533.938 51.5651 508.688 51.5651 508.688L54.0499 494.179L81.3361 492.808Z" fill="#2E2E41"/>
<path d="M45.2093 286.703C44.8953 282.345 45.6299 277.975 47.3516 273.959L41.8252 228.628L63.4735 226.629L66.7479 272.828C68.9235 276.615 70.1602 280.869 70.3548 285.233C70.9915 296.148 65.8785 305.321 58.9339 305.726C51.9894 306.131 45.8443 297.614 45.2093 286.703Z" fill="#FDB4B4"/>
<path d="M182.324 293.357C182.058 288.995 182.84 284.634 184.606 280.637L179.574 235.248L201.243 233.486L204.013 279.717C206.147 283.528 207.338 287.795 207.484 292.161C208.002 303.082 202.789 312.199 195.841 312.528C188.892 312.858 182.84 304.274 182.324 293.357Z" fill="#FDB4B4"/>
<path d="M41.7365 268.523L41.6632 268.132L30.3809 207.601L43.7122 109.032C44.9017 100.232 52.7602 93.8929 61.6218 94.6014C66.2498 94.9719 70.4019 97.1666 73.3146 100.782C76.2268 104.398 77.487 108.923 76.8626 113.523L66.8289 187.448L73.1462 266.518L41.7365 268.523Z" fill="#E8E9EA"/>
<path d="M175.638 267.103L152.955 115.699C151.776 111.259 152.466 106.613 154.908 102.665C157.35 98.717 161.199 96.025 165.746 95.0846C174.444 93.2858 183.034 98.6025 185.304 107.187L207.096 265.201L175.638 267.103Z" fill="#E8E9EA"/>
<path d="M122.635 135.424C124.173 135.424 125.42 134.177 125.42 132.639C125.42 131.101 124.173 129.854 122.635 129.854C121.097 129.854 119.851 131.101 119.851 132.639C119.851 134.177 121.097 135.424 122.635 135.424Z" fill="#D6D7D8"/>
<path d="M122.635 156.507C124.173 156.507 125.42 155.261 125.42 153.723C125.42 152.185 124.173 150.938 122.635 150.938C121.097 150.938 119.851 152.185 119.851 153.723C119.851 155.261 121.097 156.507 122.635 156.507Z" fill="#D6D7D8"/>
<path d="M122.635 177.591C124.173 177.591 125.42 176.344 125.42 174.806C125.42 173.268 124.173 172.022 122.635 172.022C121.097 172.022 119.851 173.268 119.851 174.806C119.851 176.344 121.097 177.591 122.635 177.591Z" fill="#D6D7D8"/>
<path d="M122.635 198.675C124.173 198.675 125.42 197.428 125.42 195.89C125.42 194.352 124.173 193.105 122.635 193.105C121.097 193.105 119.851 194.352 119.851 195.89C119.851 197.428 121.097 198.675 122.635 198.675Z" fill="#D6D7D8"/>
<path d="M122.635 219.758C124.173 219.758 125.42 218.512 125.42 216.974C125.42 215.436 124.173 214.189 122.635 214.189C121.097 214.189 119.851 215.436 119.851 216.974C119.851 218.512 121.097 219.758 122.635 219.758Z" fill="#D6D7D8"/>
<path d="M122.635 240.842C124.173 240.842 125.42 239.595 125.42 238.057C125.42 236.519 124.173 235.273 122.635 235.273C121.097 235.273 119.851 236.519 119.851 238.057C119.851 239.595 121.097 240.842 122.635 240.842Z" fill="#D6D7D8"/>
<path d="M122.635 261.926C124.173 261.926 125.42 260.679 125.42 259.141C125.42 257.603 124.173 256.356 122.635 256.356C121.097 256.356 119.851 257.603 119.851 259.141C119.851 260.679 121.097 261.926 122.635 261.926Z" fill="#D6D7D8"/>
<path d="M122.635 283.009C124.173 283.009 125.42 281.763 125.42 280.225C125.42 278.687 124.173 277.44 122.635 277.44C121.097 277.44 119.851 278.687 119.851 280.225C119.851 281.763 121.097 283.009 122.635 283.009Z" fill="#D6D7D8"/>
<path d="M122.639 299.319L69.9465 292.297L68.9318 292.163L42.002 230.073L25.9644 193.107H67.7375L122.639 299.319Z" fill="#00C9AA"/>
<path d="M333.907 63.7183L367.407 45.3672V97.799H328.663L333.907 63.7183Z" fill="#2E2E41"/>
<path d="M374.59 75.4078L377.682 101.149L355.399 145.519L341.568 104.222L348.071 74.5527L374.59 75.4078Z" fill="#FDB4B4"/>
<path d="M378.834 102.686H340.36V149.168H378.834V102.686Z" fill="#00C9AA"/>
<path d="M410.573 348.846L420.619 498.681L395.923 499.518L363.275 350.101L410.573 348.846Z" fill="#2E2E41"/>
<path d="M350.718 348.009L360.764 497.844L336.069 498.681L303.42 349.264L350.718 348.009Z" fill="#2E2E41"/>
<path d="M436.664 380.625L436.076 380.623L278.754 380.109L278.896 379.553L319.342 219.313L309.211 138.445C307.291 123.122 315.495 108.638 329.624 102.405L334.725 100.155L344.416 93.1082L356.813 136.911L376.665 93.074L385.411 101.817L405.134 107.05C417.427 110.311 425.391 122.271 423.659 134.87L423.638 134.957L393.519 220.894L436.664 380.625Z" fill="#E8E9EA"/>
<path d="M337.654 496.979L364.004 498.303L366.404 512.314C366.404 512.314 385.148 536.697 362.63 535.566C340.113 534.434 301.658 539.447 302.094 530.787C302.529 522.127 330.504 518.324 330.504 518.324L337.654 496.979Z" fill="#2E2E41"/>
<path d="M396.05 495.442L422.4 496.766L424.799 510.778C424.799 510.778 443.543 535.161 421.026 534.029C398.508 532.897 360.054 537.91 360.489 529.25C360.924 520.59 388.899 516.787 388.899 516.787L396.05 495.442Z" fill="#2E2E41"/>
<path d="M420.18 294.873C419.566 305.41 413.632 313.634 406.926 313.243C400.22 312.852 395.282 303.993 395.897 293.453C396.085 289.239 397.279 285.131 399.38 281.473L402.542 236.86L423.448 238.79L418.111 282.566C419.773 286.444 420.483 290.664 420.18 294.873Z" fill="#FDB4B4"/>
<path d="M312.749 290.866C311.911 301.387 305.803 309.484 299.107 308.95C292.411 308.416 287.663 299.455 288.502 288.929C288.779 284.72 290.061 280.639 292.239 277.027L296.35 232.491L317.21 234.866L310.942 278.518C312.522 282.431 313.142 286.665 312.749 290.866Z" fill="#FDB4B4"/>
<path d="M423.546 277.333L393.185 275.395L393.221 274.94L399.286 199.024L389.598 127.637C388.994 123.191 390.212 118.817 393.027 115.322C395.842 111.827 399.855 109.706 404.329 109.348C412.895 108.672 420.49 114.791 421.641 123.296L434.515 218.485L434.501 218.556L423.546 277.333Z" fill="#E8E9EA"/>
<path d="M317.803 274.425L287.394 272.587L287.46 272.107L308.43 120.03C310.635 111.677 318.941 106.54 327.346 108.278C331.741 109.187 335.461 111.789 337.821 115.605C340.182 119.422 340.849 123.912 339.7 128.25L317.803 274.425Z" fill="#E8E9EA"/>
<path d="M356.167 150.321C357.653 150.321 358.857 149.117 358.857 147.632C358.857 146.147 357.653 144.943 356.167 144.943C354.682 144.943 353.478 146.147 353.478 147.632C353.478 149.117 354.682 150.321 356.167 150.321Z" fill="#D6D7D8"/>
<path d="M356.167 170.681C357.653 170.681 358.857 169.477 358.857 167.992C358.857 166.507 357.653 165.303 356.167 165.303C354.682 165.303 353.478 166.507 353.478 167.992C353.478 169.477 354.682 170.681 356.167 170.681Z" fill="#D6D7D8"/>
<path d="M356.167 191.041C357.653 191.041 358.857 189.837 358.857 188.352C358.857 186.867 357.653 185.663 356.167 185.663C354.682 185.663 353.478 186.867 353.478 188.352C353.478 189.837 354.682 191.041 356.167 191.041Z" fill="#D6D7D8"/>
<path d="M356.167 211.402C357.653 211.402 358.857 210.198 358.857 208.713C358.857 207.227 357.653 206.023 356.167 206.023C354.682 206.023 353.478 207.227 353.478 208.713C353.478 210.198 354.682 211.402 356.167 211.402Z" fill="#D6D7D8"/>
<path d="M356.167 231.762C357.653 231.762 358.857 230.558 358.857 229.073C358.857 227.588 357.653 226.384 356.167 226.384C354.682 226.384 353.478 227.588 353.478 229.073C353.478 230.558 354.682 231.762 356.167 231.762Z" fill="#D6D7D8"/>
<path d="M356.167 252.122C357.653 252.122 358.857 250.918 358.857 249.433C358.857 247.948 357.653 246.744 356.167 246.744C354.682 246.744 353.478 247.948 353.478 249.433C353.478 250.918 354.682 252.122 356.167 252.122Z" fill="#D6D7D8"/>
<path d="M356.167 272.482C357.653 272.482 358.857 271.278 358.857 269.793C358.857 268.308 357.653 267.104 356.167 267.104C354.682 267.104 353.478 268.308 353.478 269.793C353.478 271.278 354.682 272.482 356.167 272.482Z" fill="#D6D7D8"/>
<path d="M356.167 292.843C357.653 292.843 358.857 291.639 358.857 290.153C358.857 288.668 357.653 287.464 356.167 287.464C354.682 287.464 353.478 288.668 353.478 290.153C353.478 291.639 354.682 292.843 356.167 292.843Z" fill="#D6D7D8"/>
<path d="M360.25 88.5451C374.142 88.5451 385.404 77.284 385.404 63.3927C385.404 49.5014 374.142 38.2402 360.25 38.2402C346.358 38.2402 335.096 49.5014 335.096 63.3927C335.096 77.284 346.358 88.5451 360.25 88.5451Z" fill="#FDB4B4"/>
<path d="M373.432 34.0303C374.638 36.4816 372.726 39.5435 370.196 40.5741C367.666 41.6047 364.808 41.1872 362.111 40.7582C359.413 40.3292 356.551 39.9224 354.028 40.9712C350.765 42.3283 348.925 45.7325 347.34 48.8915C344.38 54.7889 341.421 60.6862 338.461 66.5836C337.015 69.4649 335.537 72.4758 335.509 75.6994C335.458 81.6166 340.152 86.3454 342.678 91.6968C345.753 98.2124 345.499 106.197 342.017 112.505C338.534 118.812 331.912 123.281 324.759 124.15C322.877 124.379 320.886 124.354 319.194 123.499C317.502 122.644 316.21 120.777 316.523 118.908C317.136 115.251 322.724 114.397 323.75 110.834C324.286 108.974 323.337 106.988 322.058 105.535C320.779 104.082 319.162 102.949 317.942 101.447C315.129 97.9819 314.941 92.6333 317.505 88.9801C319.012 86.8331 321.342 85.238 322.316 82.8026C323.146 80.7267 322.844 78.3933 322.53 76.1799C322.126 73.3358 321.722 70.4916 321.318 67.6475C320.847 64.3292 320.383 60.8919 321.314 57.6723C323.449 50.2942 331.78 46.829 336.666 40.9026C338.936 38.1487 340.464 34.8366 342.793 32.1323C346.702 27.5939 352.856 25.0904 358.823 25.6108C364.79 26.1312 370.417 29.6623 373.481 34.8088" fill="#2E2E41"/>
<path d="M369.461 34.4956C368.232 34.9351 367.776 36.5356 368.13 37.7918C368.484 39.048 369.41 40.0461 370.258 41.0383C379.847 52.2599 382.076 69.2335 375.709 82.5501C374.015 86.0921 371.759 89.4257 370.846 93.244C370.181 96.0223 370.217 99.0699 368.675 101.475C367.106 103.924 363.996 105.565 363.689 108.457C363.492 110.313 364.623 112.115 366.139 113.204C367.656 114.292 369.509 114.79 371.33 115.195C376.066 116.251 380.908 116.827 385.758 116.912C387.34 116.94 388.972 116.905 390.422 116.275C391.873 115.645 393.111 114.279 393.128 112.697C393.141 111.454 392.424 110.308 392.332 109.068C392.058 105.354 397.057 103.378 398.031 99.7827C398.671 97.4192 397.41 94.9871 396.066 92.94C394.722 90.893 393.188 88.7434 393.221 86.295C393.253 83.951 394.724 81.8868 395.296 79.6134C396.087 76.4688 395.115 73.1796 394.152 70.0836C393.332 67.4515 392.513 64.8193 391.694 62.1872C390.823 59.3891 389.952 56.591 389.081 53.793C387.561 48.9081 385.965 43.8817 382.675 39.9638C379.385 36.0459 373.933 33.478 369.073 35.0776" fill="#2E2E41"/>
<path d="M386.602 131.962L384.878 131.459C388.47 119.144 380.725 96.1627 380.647 95.9321L382.346 95.3525C382.675 96.3166 390.352 119.107 386.602 131.962Z" fill="#3F3C57"/>
<path d="M385.74 146.107C389.883 146.107 393.242 142.748 393.242 138.606C393.242 134.463 389.883 131.104 385.74 131.104C381.597 131.104 378.238 134.463 378.238 138.606C378.238 142.748 381.597 146.107 385.74 146.107Z" fill="#3F3C57"/>
<path d="M336.449 165.162H331.9C331.404 165.162 331.002 164.76 331.002 164.264C331.002 163.768 331.404 163.366 331.9 163.366H336.449C337.703 163.366 338.881 162.878 339.767 161.99C340.652 161.103 341.138 159.924 341.136 158.671L341.08 130.651C341.08 124.564 336.129 119.613 330.044 119.613C323.958 119.613 319.006 124.564 319.006 130.649L319.061 156.876C319.066 159.435 321.153 161.532 323.711 161.552L326.834 161.576C327.33 161.58 327.729 161.984 327.725 162.481C327.722 162.974 327.32 163.372 326.827 163.372H326.82L323.697 163.348C320.158 163.321 317.272 160.419 317.265 156.88L317.21 130.651C317.21 123.574 322.967 117.817 330.044 117.817C337.119 117.817 342.876 123.574 342.876 130.649L342.932 158.668C342.935 160.401 342.263 162.032 341.037 163.258C339.813 164.486 338.183 165.162 336.449 165.162Z" fill="#3F3C57"/>
<path d="M326.827 165.656C328.585 165.656 330.01 164.232 330.01 162.474C330.01 160.716 328.585 159.292 326.827 159.292C325.069 159.292 323.645 160.716 323.645 162.474C323.645 164.232 325.069 165.656 326.827 165.656Z" fill="#3F3C57"/>
<path d="M331.9 167.446C333.658 167.446 335.083 166.022 335.083 164.264C335.083 162.506 333.658 161.082 331.9 161.082C330.142 161.082 328.717 162.506 328.717 164.264C328.717 166.022 330.142 167.446 331.9 167.446Z" fill="#3F3C57"/>
<path d="M148.166 118.502L146.442 118C150.034 105.685 142.376 82.3476 142.298 82.1169L144.453 83.7413C144.782 84.7054 151.916 105.648 148.166 118.502Z" fill="#3F3C57"/>
<path d="M87.563 120.69L89.287 120.188C85.6952 107.873 93.4401 84.8915 93.5181 84.6609L91.6739 85.8962C91.3451 86.8603 83.8133 107.836 87.563 120.69Z" fill="#3F3C57"/>
<path d="M147.304 132.647C151.447 132.647 154.806 129.289 154.806 125.146C154.806 121.004 151.447 117.645 147.304 117.645C143.161 117.645 139.803 121.004 139.803 125.146C139.803 129.289 143.161 132.647 147.304 132.647Z" fill="#3F3C57"/>
<path d="M95.5608 166.819H91.0114C90.515 166.819 90.1134 166.417 90.1134 165.921C90.1134 165.425 90.515 165.023 91.0114 165.023H95.5608C96.8148 165.023 97.9925 164.535 98.8782 163.648C99.763 162.761 100.25 161.582 100.247 160.329L100.192 132.308C100.192 126.221 95.2407 121.271 89.1549 121.271C83.0691 121.271 78.1172 126.221 78.1172 132.307L78.1725 158.534C78.1777 161.092 80.2639 163.19 82.8227 163.21L85.9454 163.233C86.4409 163.237 86.8399 163.642 86.8364 164.138C86.8329 164.631 86.4312 165.029 85.9384 165.029H85.9314L82.8087 165.005C79.2695 164.978 76.3836 162.076 76.3765 158.537L76.3213 132.308C76.3213 125.231 82.0782 119.475 89.1549 119.475C96.2308 119.475 101.988 125.231 101.988 132.307L102.043 160.325C102.046 162.059 101.374 163.689 100.149 164.916C98.9247 166.143 97.2945 166.819 95.5608 166.819Z" fill="#3F3C57"/>
<path d="M85.9385 167.314C87.6963 167.314 89.1212 165.889 89.1212 164.131C89.1212 162.374 87.6963 160.949 85.9385 160.949C84.1808 160.949 82.7559 162.374 82.7559 164.131C82.7559 165.889 84.1808 167.314 85.9385 167.314Z" fill="#3F3C57"/>
<path d="M91.0108 169.104C92.7686 169.104 94.1935 167.679 94.1935 165.921C94.1935 164.164 92.7686 162.739 91.0108 162.739C89.2531 162.739 87.8281 164.164 87.8281 165.921C87.8281 167.679 89.2531 169.104 91.0108 169.104Z" fill="#3F3C57"/>
</g>
<defs>
<clipPath id="clip0_178_278">
<rect width="622" height="536" fill="white" transform="translate(-71)"/>
</clipPath>
</defs>
</svg>
